<svg width="27" height="27" viewBox="0 0 27 27" fill="none" xmlns="http://www.w3.org/2000/svg">
<path d="M24.1071 27H2.89286C1.29516 27 0 25.7048 0 24.1071V2.89286C0 1.29516 1.29516 0 2.89286 0H24.1071C25.7048 0 27 1.29516 27 2.89286V24.1071C27 25.7048 25.7048 27 24.1071 27ZM11.7712 21.0902L22.8604 10.0009C23.237 9.62435 23.237 9.01378 22.8604 8.63723L21.4968 7.27355C21.1202 6.89699 20.5096 6.89693 20.133 7.27355L11.0893 16.3172L6.86698 12.0949C6.49043 11.7184 5.87985 11.7184 5.50324 12.0949L4.13956 13.4586C3.763 13.8352 3.763 14.4457 4.13956 14.8223L10.4074 21.0901C10.784 21.4668 11.3945 21.4668 11.7712 21.0902Z" fill="#231EDC"/>
</svg>
