<svg width="58" height="14" viewBox="0 0 58 14" fill="none" xmlns="http://www.w3.org/2000/svg">
    <path
        d="M14.3684 7C14.3684 3.15 11.1355 -4.86749e-07 7.18421 -3.14032e-07C3.23289 -1.41314e-07 -4.74269e-07 3.15 -3.0598e-07 7C-1.37691e-07 10.85 3.2329 14 7.18421 14C11.1355 14 14.3684 10.85 14.3684 7ZM21.5526 7C21.5526 10.85 24.7855 14 28.7368 14C32.6882 14 35.9211 10.85 35.9211 7C35.9211 3.15 32.6882 -1.42885e-06 28.7368 -1.25613e-06C24.7855 -1.08341e-06 21.5526 3.15 21.5526 7ZM43.1053 7C43.1053 10.85 46.3382 14 50.2895 14C54.2408 14 57.4737 10.85 57.4737 7C57.4737 3.15 54.2408 -2.37094e-06 50.2895 -2.19822e-06C46.3382 -2.02551e-06 43.1053 3.15 43.1053 7Z"
        fill="white" fill-opacity="0.5" />
</svg>