<svg width="37" height="40" viewBox="0 0 37 40" fill="none" xmlns="http://www.w3.org/2000/svg">
<path d="M30.1205 28.2731C28.5944 28.2731 27.2289 28.8755 26.1847 29.8193L11.8675 21.4859C11.9679 21.0241 12.0482 20.5622 12.0482 20.0803C12.0482 19.5984 11.9679 19.1365 11.8675 18.6747L26.0241 10.4217C27.1084 11.4257 28.5341 12.0482 30.1205 12.0482C33.4538 12.0482 36.1446 9.35743 36.1446 6.0241C36.1446 2.69076 33.4538 0 30.1205 0C26.7871 0 24.0964 2.69076 24.0964 6.0241C24.0964 6.50602 24.1767 6.96787 24.2771 7.42972L10.1205 15.6827C9.03614 14.6787 7.61044 14.0562 6.0241 14.0562C2.69076 14.0562 0 16.747 0 20.0803C0 23.4137 2.69076 26.1044 6.0241 26.1044C7.61044 26.1044 9.03614 25.4819 10.1205 24.4779L24.4177 32.8313C24.3173 33.253 24.257 33.6948 24.257 34.1365C24.257 37.3695 26.8876 40 30.1205 40C33.3534 40 35.9839 37.3695 35.9839 34.1365C35.9839 30.9036 33.3534 28.2731 30.1205 28.2731Z" fill="white"/>
</svg>
