<svg width="20" height="17" viewBox="0 0 20 17" fill="none" xmlns="http://www.w3.org/2000/svg">
<path d="M16 0.172852L17.82 3.81285C17.9 3.97285 17.78 4.17285 17.6 4.17285H15.62C15.24 4.17285 14.89 3.96285 14.73 3.62285L13 0.172852H11L12.82 3.81285C12.9 3.97285 12.78 4.17285 12.6 4.17285H10.62C10.24 4.17285 9.89 3.96285 9.73 3.62285L8 0.172852H6L7.82 3.81285C7.9 3.97285 7.78 4.17285 7.6 4.17285H5.62C5.24 4.17285 4.89 3.96285 4.72 3.62285L3 0.172852H2C0.9 0.172852 0 1.07285 0 2.17285V14.1729C0 15.2729 0.9 16.1729 2 16.1729H18C19.1 16.1729 20 15.2729 20 14.1729V1.17285C20 0.622852 19.55 0.172852 19 0.172852H16Z" fill="#231EDC"/>
</svg>
