<svg width="20" height="21" viewBox="0 0 20 21" fill="none" xmlns="http://www.w3.org/2000/svg">
<path d="M17.7778 0.181885H2.22222C1 0.181885 0 1.18188 0 2.40411V17.9597C0 19.1819 1 20.1819 2.22222 20.1819H17.7778C19 20.1819 20 19.1819 20 17.9597V2.40411C20 1.18188 19 0.181885 17.7778 0.181885ZM11.1111 15.7374H5.55556C4.94444 15.7374 4.44444 15.2374 4.44444 14.6263C4.44444 14.0152 4.94444 13.5152 5.55556 13.5152H11.1111C11.7222 13.5152 12.2222 14.0152 12.2222 14.6263C12.2222 15.2374 11.7222 15.7374 11.1111 15.7374ZM14.4444 11.293H5.55556C4.94444 11.293 4.44444 10.793 4.44444 10.1819C4.44444 9.57077 4.94444 9.07077 5.55556 9.07077H14.4444C15.0556 9.07077 15.5556 9.57077 15.5556 10.1819C15.5556 10.793 15.0556 11.293 14.4444 11.293ZM14.4444 6.84855H5.55556C4.94444 6.84855 4.44444 6.34855 4.44444 5.73744C4.44444 5.12633 4.94444 4.62633 5.55556 4.62633H14.4444C15.0556 4.62633 15.5556 5.12633 15.5556 5.73744C15.5556 6.34855 15.0556 6.84855 14.4444 6.84855Z" fill="#231EDC"/>
</svg>
