<svg width="59" height="56" viewBox="0 0 59 56" fill="none" xmlns="http://www.w3.org/2000/svg">
<path d="M17.7311 3.65802L17.7311 3.65802L17.7285 3.66165L1.56878 26.2612C0.818062 27.3122 0.814299 28.6899 1.53459 29.7469L17.6885 52.3383L17.6911 52.342C18.8636 53.9973 20.7993 55 22.835 55C27.989 55 30.9824 49.1952 27.9831 45.0238L27.9808 45.0205L16.2608 28.5805L15.8469 28L16.2608 27.4195L27.9799 10.9807C27.9801 10.9805 27.9802 10.9803 27.9803 10.9801C30.9516 6.79876 27.9782 1 22.835 1C20.8053 1 18.907 1.99781 17.7311 3.65802Z" fill="#AFF7D4" fill-opacity="0.3" stroke="black" stroke-width="2"/>
<path d="M29.5692 26.2607L29.5688 26.2612C28.8181 27.3122 28.8143 28.6899 29.5346 29.7469L45.6885 52.3383L45.6911 52.342C46.8636 53.9973 48.7993 55 50.835 55C55.989 55 58.9824 49.1952 55.9831 45.0238L55.9808 45.0205L44.2608 28.5805L43.8469 28L44.2608 27.4195L55.9808 10.9795L55.9808 10.9795L55.9831 10.9762C58.9824 6.80483 55.989 1 50.835 1C48.8093 1 46.9058 1.99493 45.6861 3.66506L29.5692 26.2607Z" fill="#AFF7D4" fill-opacity="0.3" stroke="black" stroke-width="2"/>
</svg>
