<svg width="59" height="56" viewBox="0 0 59 56" fill="none" xmlns="http://www.w3.org/2000/svg">
<path d="M40.4491 3.65802L40.4491 3.65802L40.4517 3.66165L56.6114 26.2612C57.3621 27.3122 57.3659 28.6899 56.6456 29.7469L40.4917 52.3383L40.4891 52.342C39.3166 53.9973 37.3808 55 35.3451 55C30.1912 55 27.1978 49.1952 30.1971 45.0238L30.1994 45.0205L41.9194 28.5805L42.3332 28L41.9194 27.4195L30.2002 10.9807C30.2001 10.9805 30.2 10.9803 30.1999 10.9801C27.2286 6.79876 30.202 1 35.3451 1C37.3748 1 39.2731 1.99781 40.4491 3.65802Z" fill="#AFF7D4" fill-opacity="0.3" stroke="black" stroke-width="2"/>
<path d="M28.611 26.2607L28.6114 26.2612C29.3621 27.3122 29.3659 28.6899 28.6456 29.7469L12.4917 52.3383L12.4891 52.342C11.3166 53.9973 9.38084 55 7.34513 55C2.19122 55 -0.802218 49.1952 2.19705 45.0238L2.1994 45.0205L13.9194 28.5805L14.3332 28L13.9194 27.4195L2.1994 10.9795L2.19941 10.9795L2.19705 10.9762C-0.802218 6.80483 2.19122 1 7.34513 1C9.37087 1 11.2744 1.99493 12.4941 3.66506L28.611 26.2607Z" fill="#AFF7D4" fill-opacity="0.3" stroke="black" stroke-width="2"/>
</svg>
