<svg width="20" height="16" viewBox="0 0 20 16" fill="none" xmlns="http://www.w3.org/2000/svg">
<path d="M18 7.93103C18 7.17759 18.43 6.52328 19.06 6.18621C19.66 5.85905 20 5.18491 20 4.50086V1.98276C20 0.892241 19.1 0 18 0H2C0.9 0 0.00999999 0.882327 0.00999999 1.97284V4.50086C0.00999999 5.18491 0.34 5.85905 0.95 6.17629C1.58 6.52328 2 7.17759 2 7.93103C2 8.68448 1.57 9.34871 0.94 9.67586C0.34 10.003 0 10.6772 0 11.3612V13.8793C0 14.9698 0.9 15.8621 2 15.8621H18C19.1 15.8621 20 14.9698 20 13.8793V11.3612C20 10.6772 19.66 10.003 19.06 9.67586C18.43 9.33879 18 8.68448 18 7.93103ZM12.5 11.9957L10 10.4095L7.5 12.0056C7.12 12.2435 6.63 11.8966 6.75 11.4603L7.5 8.60517L5.2 6.74138C4.85 6.45388 5.03 5.88879 5.49 5.85905L8.45 5.69052L9.53 2.96422C9.7 2.54784 10.3 2.54784 10.46 2.96422L11.54 5.70043L14.5 5.86897C14.95 5.89871 15.14 6.46379 14.79 6.75129L12.49 8.61509L13.25 11.4504C13.37 11.8966 12.88 12.2435 12.5 11.9957Z" fill="white"/>
</svg>
