<svg width="20" height="18" viewBox="0 0 20 18" fill="none" xmlns="http://www.w3.org/2000/svg">
<path d="M17.6573 0.990273C15.0183 -0.809035 11.7596 0.0306424 10.0003 2.08985C8.24095 0.0306424 4.9822 -0.819031 2.34322 0.990273C0.943757 1.9499 0.0640948 3.56928 0.00411789 5.27862C-0.135828 9.15713 3.30285 12.2659 8.55083 17.0341L8.65079 17.1241C9.4105 17.8138 10.5801 17.8138 11.3398 17.1141L11.4497 17.0141C16.6977 12.2559 20.1264 9.14714 19.9964 5.26863C19.9365 3.56928 19.0568 1.9499 17.6573 0.990273ZM10.1002 15.5447L10.0003 15.6446L9.90031 15.5447C5.14214 11.2363 2.00335 8.38743 2.00335 5.49854C2.00335 3.49931 3.50277 1.99989 5.502 1.99989C7.04141 1.99989 8.54084 2.98951 9.07063 4.35898H10.9399C11.4597 2.98951 12.9591 1.99989 14.4985 1.99989C16.4978 1.99989 17.9972 3.49931 17.9972 5.49854C17.9972 8.38743 14.8584 11.2363 10.1002 15.5447Z" fill="#231EDC"/>
</svg>
