<svg width="101" height="101" viewBox="0 0 101 101" fill="none" xmlns="http://www.w3.org/2000/svg">
<path fill-rule="evenodd" clip-rule="evenodd" d="M100.505 50.1564C100.505 60.0454 97.5729 69.7124 92.0788 77.9349C86.5848 86.1573 78.7759 92.5659 69.6395 96.3503C60.5032 100.135 50.4499 101.125 40.7509 99.1956C31.0518 97.2664 22.1427 92.5043 15.15 85.5117C8.15743 78.5191 3.39539 69.6099 1.46613 59.9109C-0.463131 50.2118 0.527035 40.1585 4.31142 31.0222C8.0958 21.8859 14.5044 14.077 22.7269 8.58289C30.9493 3.08882 40.6163 0.156372 50.5054 0.156372C63.7662 0.156372 76.4839 5.42421 85.8607 14.801C95.2375 24.1778 100.505 36.8955 100.505 50.1564Z" fill="#333333"/>
<path fill-rule="evenodd" clip-rule="evenodd" d="M62.472 83.966C62.5986 82.2701 62.3612 80.5668 61.7756 78.9702C61.19 77.3736 60.2698 75.9207 59.0767 74.7088C70.2148 73.4707 81.9053 69.2422 81.9053 50.0374C81.9846 45.0696 80.1441 40.2628 76.7672 36.6184C78.292 32.3046 78.1132 27.5715 76.2672 23.385C76.2672 23.385 72.0767 22.0422 62.5339 28.5136C54.3392 26.2659 45.6905 26.2659 37.4958 28.5136C27.9481 22.0422 23.7481 23.385 23.7481 23.385C21.9127 27.5752 21.7425 32.3071 23.272 36.6184C19.8999 40.2569 18.0567 45.0532 18.1243 50.0136C18.1243 69.1707 29.7958 73.4612 40.9005 74.7231C39.0846 76.4983 37.9588 78.8612 37.7243 81.3898C36.4981 82.0801 35.1471 82.5203 33.7495 82.6849C32.352 82.8494 30.9357 82.7351 29.5826 82.3484C28.2296 81.9618 26.9667 81.3105 25.8671 80.4324C24.7675 79.5542 23.853 78.4667 23.1767 77.2327C22.3756 75.8477 21.269 74.6637 19.9413 73.7709C18.6136 72.878 17.0997 72.2998 15.5148 72.0803C15.5148 72.0803 10.6339 72.0184 15.172 75.1231C17.8359 76.8188 19.8053 79.4115 20.7243 82.4326C20.7243 82.4326 23.6577 92.1612 37.5672 89.1374C37.5672 93.3088 37.6339 96.4565 37.6339 97.6422C37.6253 97.9291 37.5739 98.2132 37.4815 98.485C45.7015 100.688 54.3567 100.688 62.5767 98.485C62.4812 98.22 62.4251 97.9425 62.41 97.6612C62.41 96.0231 62.472 90.6326 62.472 83.966Z" fill="white"/>
</svg>
