<svg width="14" height="13" viewBox="0 0 14 13" fill="none" xmlns="http://www.w3.org/2000/svg">
<path d="M12.3601 0.693191C10.5128 -0.566324 8.23172 0.0214497 7.00019 1.4629C5.76867 0.0214497 3.48754 -0.573322 1.64025 0.693191C0.66063 1.36493 0.0448664 2.4985 0.00288252 3.69504C-0.0950798 6.40999 2.312 8.58616 5.98558 11.9239L6.05555 11.9868C6.58735 12.4697 7.40604 12.4697 7.93783 11.9799L8.0148 11.9099C11.6884 8.57916 14.0885 6.403 13.9975 3.68804C13.9555 2.4985 13.3398 1.36493 12.3601 0.693191ZM7.07017 10.8813L7.00019 10.9512L6.93022 10.8813C3.5995 7.86543 1.40234 5.8712 1.40234 3.84898C1.40234 2.44952 2.45194 1.39992 3.8514 1.39992C4.92899 1.39992 5.97858 2.09265 6.34944 3.05128H7.65794C8.0218 2.09265 9.0714 1.39992 10.149 1.39992C11.5484 1.39992 12.598 2.44952 12.598 3.84898C12.598 5.8712 10.4009 7.86543 7.07017 10.8813Z" fill="#231EDC"/>
</svg>
