<svg width="20" height="21" viewBox="0 0 20 21" fill="none" xmlns="http://www.w3.org/2000/svg">
<path d="M7.99814 13.6801V6.68137C7.99814 6.27144 8.46805 6.03149 8.79799 6.28144L13.4671 9.78079C13.7371 9.98075 13.7371 10.3807 13.4671 10.5806L8.79799 14.08C8.46805 14.3299 7.99814 14.09 7.99814 13.6801ZM19.9559 9.23089C20.5358 15.4897 15.3168 20.7087 9.05794 20.1288C4.62877 19.7189 0.93946 16.2796 0.159607 11.9004C-0.100345 10.4807 -0.030358 9.12091 0.279584 7.86115C0.419558 7.28126 1.03944 6.96132 1.58934 7.16128C2.05925 7.33125 2.3392 7.83115 2.21922 8.32106C2.01926 9.14091 1.94927 10.0207 2.02926 10.9306C2.39919 14.9698 5.91853 18.1792 9.97777 18.1892C14.7669 18.1992 18.5862 13.98 17.9163 9.07092C17.4064 5.37161 14.257 2.45216 10.5277 2.21221C9.69782 2.15222 8.89797 2.2322 8.14811 2.41217C7.6582 2.52215 7.15829 2.2522 6.98833 1.77229C6.78836 1.21239 7.1083 0.602508 7.6782 0.462534C9.46786 0.0326147 11.4275 0.0526112 13.4571 0.832465C17.0164 2.18221 19.606 5.4516 19.9559 9.23089ZM3.49898 2.18221C2.66914 2.18221 1.99926 2.85209 1.99926 3.68193C1.99926 4.51178 2.66914 5.18165 3.49898 5.18165C4.32882 5.18165 4.9987 4.51178 4.9987 3.68193C4.9987 2.85209 4.32882 2.18221 3.49898 2.18221Z" fill="#231EDC"/>
</svg>
