<svg width="55" height="52" viewBox="0 0 55 52" fill="none" xmlns="http://www.w3.org/2000/svg">
<g filter="url(#filter0_d_203_1062)">
<ellipse cx="27.5623" cy="24" rx="24.7068" ry="24" fill="white" fill-opacity="0.4" shape-rendering="crispEdges"/>
<path d="M51.7691 24C51.7691 36.9651 40.9451 47.5 27.5623 47.5C14.1795 47.5 3.35547 36.9651 3.35547 24C3.35547 11.0349 14.1795 0.5 27.5623 0.5C40.9451 0.5 51.7691 11.0349 51.7691 24Z" stroke="#231EDC" shape-rendering="crispEdges"/>
</g>
<g filter="url(#filter1_d_203_1062)">
<path d="M36.3016 23.1278C36.9828 23.5098 36.9828 24.4902 36.3016 24.8722L23.9042 31.8251C23.2376 32.1989 22.415 31.7171 22.415 30.9529L22.415 17.0471C22.415 16.2828 23.2376 15.801 23.9042 16.1749L36.3016 23.1278Z" fill="#231EDC"/>
</g>
<defs>
<filter id="filter0_d_203_1062" x="0.855469" y="0" width="53.4137" height="52" filterUnits="userSpaceOnUse" color-interpolation-filters="sRGB">
<feFlood flood-opacity="0" result="BackgroundImageFix"/>
<feColorMatrix in="SourceAlpha" type="matrix" values="0 0 0 0 0 0 0 0 0 0 0 0 0 0 0 0 0 0 127 0" result="hardAlpha"/>
<feOffset dy="2"/>
<feGaussianBlur stdDeviation="1"/>
<feComposite in2="hardAlpha" operator="out"/>
<feColorMatrix type="matrix" values="0 0 0 0 0 0 0 0 0 0 0 0 0 0 0 0 0 0 0.1 0"/>
<feBlend mode="normal" in2="BackgroundImageFix" result="effect1_dropShadow_203_1062"/>
<feBlend mode="normal" in="SourceGraphic" in2="effect1_dropShadow_203_1062" result="shape"/>
</filter>
<filter id="filter1_d_203_1062" x="20.415" y="14.0457" width="18.3975" height="19.9087" filterUnits="userSpaceOnUse" color-interpolation-filters="sRGB">
<feFlood flood-opacity="0" result="BackgroundImageFix"/>
<feColorMatrix in="SourceAlpha" type="matrix" values="0 0 0 0 0 0 0 0 0 0 0 0 0 0 0 0 0 0 127 0" result="hardAlpha"/>
<feOffset/>
<feGaussianBlur stdDeviation="1"/>
<feComposite in2="hardAlpha" operator="out"/>
<feColorMatrix type="matrix" values="0 0 0 0 0 0 0 0 0 0 0 0 0 0 0 0 0 0 0.1 0"/>
<feBlend mode="normal" in2="BackgroundImageFix" result="effect1_dropShadow_203_1062"/>
<feBlend mode="normal" in="SourceGraphic" in2="effect1_dropShadow_203_1062" result="shape"/>
</filter>
</defs>
</svg>
