<svg width="23" height="23" viewBox="0 0 23 23" fill="none" xmlns="http://www.w3.org/2000/svg">
<path d="M2.55556 0C1.14361 0 0 1.14361 0 2.55556V20.4444C0 21.8564 1.14361 23 2.55556 23H20.4444C21.8564 23 23 21.8564 23 20.4444V2.55556C23 1.14361 21.8564 0 20.4444 0H2.55556ZM10.2222 3.83333C13.7502 3.83333 16.6111 6.69428 16.6111 10.2222C16.6111 11.5243 16.2175 12.7317 15.548 13.7411L18.7923 16.9855C19.2919 17.4838 19.2919 18.294 18.7923 18.7923C18.2927 19.2919 17.4838 19.2919 16.9855 18.7923L13.7411 15.548C12.7317 16.2175 11.5243 16.6111 10.2222 16.6111C6.69428 16.6111 3.83333 13.7502 3.83333 10.2222C3.83333 6.69428 6.69428 3.83333 10.2222 3.83333ZM10.2222 6.38889C9.20556 6.38889 8.23054 6.79276 7.51165 7.51165C6.79276 8.23054 6.38889 9.20556 6.38889 10.2222C6.38889 11.2389 6.79276 12.2139 7.51165 12.9328C8.23054 13.6517 9.20556 14.0556 10.2222 14.0556C11.2389 14.0556 12.2139 13.6517 12.9328 12.9328C13.6517 12.2139 14.0556 11.2389 14.0556 10.2222C14.0556 9.20556 13.6517 8.23054 12.9328 7.51165C12.2139 6.79276 11.2389 6.38889 10.2222 6.38889Z" fill="#231EDC"/>
</svg>
