<svg width="20" height="21" viewBox="0 0 20 21" fill="none" xmlns="http://www.w3.org/2000/svg">
<path d="M17.6407 11.288C17.6818 10.959 17.7127 10.6301 17.7127 10.2805C17.7127 9.93099 17.6818 9.60202 17.6407 9.27304L19.8099 7.57675C20.0052 7.42254 20.0566 7.14497 19.9333 6.9188L17.8772 3.36173C17.7538 3.13556 17.4762 3.05332 17.25 3.13556L14.6902 4.16362C14.1556 3.75239 13.5799 3.41314 12.9528 3.15612L12.5621 0.431782C12.5313 0.18505 12.3154 0 12.0584 0H7.94616C7.68915 0 7.47326 0.18505 7.44242 0.431782L7.05176 3.15612C6.42464 3.41314 5.84894 3.76267 5.31435 4.16362L2.7545 3.13556C2.51804 3.04304 2.25075 3.13556 2.12738 3.36173L0.0712765 6.9188C-0.0623704 7.14497 -0.00068705 7.42254 0.194643 7.57675L2.36384 9.27304C2.32271 9.60202 2.29187 9.94127 2.29187 10.2805C2.29187 10.6198 2.32271 10.959 2.36384 11.288L0.194643 12.9843C-0.00068705 13.1385 -0.0520898 13.4161 0.0712765 13.6423L2.12738 17.1993C2.25075 17.4255 2.52832 17.5077 2.7545 17.4255L5.31435 16.3974C5.84894 16.8087 6.42464 17.1479 7.05176 17.4049L7.44242 20.1293C7.47326 20.376 7.68915 20.5611 7.94616 20.5611H12.0584C12.3154 20.5611 12.5313 20.376 12.5621 20.1293L12.9528 17.4049C13.5799 17.1479 14.1556 16.7984 14.6902 16.3974L17.25 17.4255C17.4865 17.518 17.7538 17.4255 17.8772 17.1993L19.9333 13.6423C20.0566 13.4161 20.0052 13.1385 19.8099 12.9843L17.6407 11.288ZM10.0023 13.8787C8.01813 13.8787 6.40408 12.2647 6.40408 10.2805C6.40408 8.29639 8.01813 6.68235 10.0023 6.68235C11.9864 6.68235 13.6005 8.29639 13.6005 10.2805C13.6005 12.2647 11.9864 13.8787 10.0023 13.8787Z" fill="black"/>
</svg>
