<svg width="185" height="43" viewBox="0 0 185 43" fill="none" xmlns="http://www.w3.org/2000/svg">
<rect x="1" y="1" width="183" height="41" rx="5" fill="#AFF7D4" stroke="black"/>
<path d="M57.1172 25.1133C57.1172 25.9596 56.9089 26.6888 56.4922 27.3008C56.082 27.9128 55.4896 28.3815 54.7148 28.707C53.9466 29.0326 53.0286 29.1953 51.9609 29.1953C51.4401 29.1953 50.9421 29.166 50.4668 29.1074C49.9915 29.0488 49.5423 28.9642 49.1191 28.8535C48.7025 28.7363 48.3216 28.5964 47.9766 28.4336V26.2266C48.556 26.4805 49.2038 26.7116 49.9199 26.9199C50.6361 27.1217 51.3652 27.2227 52.1074 27.2227C52.7129 27.2227 53.2142 27.1445 53.6113 26.9883C54.015 26.8255 54.3145 26.5977 54.5098 26.3047C54.7051 26.0052 54.8027 25.6569 54.8027 25.2598C54.8027 24.8366 54.6888 24.4785 54.4609 24.1855C54.2331 23.8926 53.888 23.6257 53.4258 23.3848C52.9701 23.1374 52.3971 22.8737 51.707 22.5938C51.2383 22.4049 50.7891 22.1901 50.3594 21.9492C49.9362 21.7083 49.5586 21.4251 49.2266 21.0996C48.8945 20.7741 48.6309 20.39 48.4355 19.9473C48.2467 19.498 48.1523 18.9707 48.1523 18.3652C48.1523 17.5579 48.3444 16.8678 48.7285 16.2949C49.1191 15.722 49.666 15.2826 50.3691 14.9766C51.0788 14.6706 51.9056 14.5176 52.8496 14.5176C53.5983 14.5176 54.3014 14.5957 54.959 14.752C55.623 14.9082 56.2741 15.1296 56.9121 15.416L56.1699 17.3008C55.584 17.0599 55.0143 16.8678 54.4609 16.7246C53.9141 16.5814 53.3542 16.5098 52.7812 16.5098C52.2865 16.5098 51.8665 16.5846 51.5215 16.7344C51.1764 16.8841 50.9128 17.0957 50.7305 17.3691C50.5547 17.6361 50.4668 17.9551 50.4668 18.3262C50.4668 18.7428 50.5677 19.0944 50.7695 19.3809C50.9779 19.6608 51.2969 19.918 51.7266 20.1523C52.1628 20.3867 52.7227 20.6471 53.4062 20.9336C54.194 21.2591 54.8613 21.6009 55.4082 21.959C55.9616 22.3171 56.3848 22.7467 56.6777 23.248C56.9707 23.7428 57.1172 24.3646 57.1172 25.1133ZM75.1309 29H72.7969V22.5547H66.2148V29H63.8711V14.7227H66.2148V20.5625H72.7969V14.7227H75.1309V29ZM94.1211 14.7227V23.9609C94.1211 24.957 93.9095 25.849 93.4863 26.6367C93.0697 27.4245 92.4382 28.0495 91.5918 28.5117C90.7454 28.9674 89.681 29.1953 88.3984 29.1953C86.569 29.1953 85.1758 28.7168 84.2188 27.7598C83.2682 26.7962 82.793 25.5169 82.793 23.9219V14.7227H85.1367V23.7168C85.1367 24.9082 85.4167 25.7871 85.9766 26.3535C86.5365 26.9199 87.373 27.2031 88.4863 27.2031C89.2546 27.2031 89.8796 27.0697 90.3613 26.8027C90.8496 26.5293 91.2077 26.1322 91.4355 25.6113C91.6699 25.084 91.7871 24.4492 91.7871 23.707V14.7227H94.1211ZM104.098 29H101.773V14.7227H109.84V16.6953H104.098V21.1484H109.469V23.1113H104.098V29ZM118.762 29H116.438V14.7227H124.504V16.6953H118.762V21.1484H124.133V23.1113H118.762V29ZM131.102 29V14.7227H133.445V27.0078H139.51V29H131.102ZM154.066 29H145.98V14.7227H154.066V16.6953H148.324V20.5723H153.705V22.5352H148.324V27.0176H154.066V29Z" fill="black"/>
<path d="M32.7581 19.409L29.3179 15.597C29.0178 15.2644 28.5329 15.2644 28.2328 15.597C27.9327 15.9296 27.9327 16.4668 28.2328 16.7994L31.6652 20.6029L32.7581 19.409ZM36.4214 15.7249L37.3372 16.7397L28.2251 26.8369C27.925 27.1695 27.925 27.7067 28.2251 28.0393C28.5253 28.3719 29.0101 28.3719 29.3102 28.0393L38.43 17.9507L39.3458 18.9655C39.5844 19.2299 40 19.0423 40 18.6585V15.4264C40 15.1876 39.8307 15 39.6152 15H36.6984C36.3521 15 36.1828 15.4605 36.4214 15.7249ZM36.0212 23.0249L34.936 24.2273L37.3449 26.8966L36.4214 27.9199C36.1828 28.1843 36.3521 28.6448 36.6984 28.6448H39.6152C39.8307 28.6448 40 28.4572 40 28.2184V24.9863C40 24.6025 39.5844 24.4149 39.3458 24.6878L38.43 25.7027L36.0212 23.0249Z" fill="black"/>
</svg>
