<svg width="150" height="41" viewBox="0 0 150 41" fill="none" xmlns="http://www.w3.org/2000/svg">
<rect width="150" height="41" rx="5" fill="#231EDC"/>
<path d="M61.88 13.2632C63.7224 13.2632 65.0668 13.6408 65.9132 14.396C66.7595 15.1512 67.1827 16.2091 67.1827 17.5698C67.1827 18.1883 67.0851 18.7775 66.8897 19.3374C66.7009 19.8908 66.3884 20.3823 65.9522 20.812C65.516 21.2352 64.9399 21.5705 64.2237 21.8179C63.5141 22.0653 62.6384 22.189 61.5968 22.189H60.0733V27.5405H57.7296V13.2632H61.88ZM61.7237 15.2065H60.0733V20.2358H61.3526C62.0883 20.2358 62.7133 20.1512 63.2276 19.9819C63.742 19.8062 64.1326 19.5295 64.3995 19.1519C64.6664 18.7743 64.7999 18.2762 64.7999 17.6577C64.7999 16.8309 64.5492 16.2157 64.0479 15.812C63.5532 15.4084 62.7784 15.2065 61.7237 15.2065ZM74.0343 27.5405V13.2632H76.378V25.5483H82.4425V27.5405H74.0343ZM97.7608 27.5405L96.3644 23.5757H90.9054L89.5089 27.5405H87.0382L92.3507 13.2046H94.9483L100.251 27.5405H97.7608ZM95.7589 21.564L94.4015 17.6577C94.3494 17.4884 94.2745 17.2508 94.1769 16.9448C94.0792 16.6323 93.9815 16.3166 93.8839 15.9976C93.7862 15.672 93.7048 15.3986 93.6397 15.1772C93.5746 15.4442 93.4933 15.7437 93.3956 16.0757C93.3045 16.4012 93.2133 16.7072 93.1222 16.9937C93.0375 17.2801 92.9724 17.5015 92.9269 17.6577L91.5597 21.564H95.7589ZM110.179 19.7769L113.567 13.2632H116.097L111.351 21.9937V27.5405H109.017V22.0815L104.261 13.2632H106.81L110.179 19.7769Z" fill="white"/>
<path d="M33 13.5018V27.0809C33 28.1163 34.0291 28.7455 34.8216 28.1819L44.45 21.3923C45.1833 20.8812 45.1833 19.7015 44.45 19.1772L34.8216 12.4008C34.0291 11.8372 33 12.4663 33 13.5018Z" fill="white"/>
</svg>
