<svg width="14" height="12" viewBox="0 0 14 12" fill="none" xmlns="http://www.w3.org/2000/svg">
<path d="M1.65448 4.99998V6.99998C1.65448 7.27498 1.90265 7.49998 2.20597 7.49998H3.86045L5.67485 9.14498C6.02229 9.45998 6.6179 9.23498 6.6179 8.78998V3.20498C6.6179 2.75998 6.02229 2.53498 5.67485 2.84998L3.86045 4.49998H2.20597C1.90265 4.49998 1.65448 4.72498 1.65448 4.99998ZM9.09962 5.99998C9.09962 5.11498 8.5371 4.35498 7.72089 3.98498V8.00998C8.5371 7.64498 9.09962 6.88498 9.09962 5.99998ZM7.72089 2.22498V2.32498C7.72089 2.51498 7.85876 2.67998 8.05178 2.74998C9.47463 3.26498 10.4783 4.52998 10.4783 5.99998C10.4783 7.46998 9.47463 8.73498 8.05178 9.24998C7.85325 9.31998 7.72089 9.48498 7.72089 9.67498V9.77498C7.72089 10.09 8.06833 10.31 8.38819 10.2C10.2577 9.55498 11.5813 7.91998 11.5813 5.99998C11.5813 4.07998 10.2577 2.44498 8.38819 1.79998C8.06833 1.68498 7.72089 1.90998 7.72089 2.22498Z" fill="#231EDC"/>
</svg>
