<svg width="33" height="30" viewBox="0 0 33 30" fill="none" xmlns="http://www.w3.org/2000/svg">
<path d="M4.125 12.5V17.5C4.125 18.1875 4.74375 18.75 5.5 18.75H9.625L14.1487 22.8625C15.015 23.65 16.5 23.0875 16.5 21.975V8.01248C16.5 6.89998 15.015 6.33748 14.1487 7.12498L9.625 11.25H5.5C4.74375 11.25 4.125 11.8125 4.125 12.5ZM22.6875 15C22.6875 12.7875 21.285 10.8875 19.25 9.96248V20.025C21.285 19.1125 22.6875 17.2125 22.6875 15ZM19.25 5.56248V5.81248C19.25 6.28748 19.5937 6.69998 20.075 6.87498C23.6225 8.16248 26.125 11.325 26.125 15C26.125 18.675 23.6225 21.8375 20.075 23.125C19.58 23.3 19.25 23.7125 19.25 24.1875V24.4375C19.25 25.225 20.1162 25.775 20.9137 25.5C25.575 23.8875 28.875 19.8 28.875 15C28.875 10.2 25.575 6.11248 20.9137 4.49998C20.1162 4.21248 19.25 4.77498 19.25 5.56248Z" fill="#231EDC"/>
</svg>
