<svg width="25" height="22" viewBox="0 0 25 22" fill="none" xmlns="http://www.w3.org/2000/svg">
<path d="M0 7.74251V12.7425C0 13.43 0.61875 13.9925 1.375 13.9925H5.5L10.0237 18.105C10.89 18.8925 12.375 18.33 12.375 17.2175V3.25501C12.375 2.14251 10.89 1.58001 10.0237 2.36751L5.5 6.49251H1.375C0.61875 6.49251 0 7.05501 0 7.74251Z" fill="#231EDC"/>
<path d="M21.377 10L23.7539 7.62304C24.082 7.29493 24.082 6.76267 23.7539 6.43456L22.5654 5.24608C22.2373 4.91797 21.7051 4.91797 21.377 5.24608L19 7.62304L16.623 5.24608C16.2949 4.91797 15.7627 4.91797 15.4346 5.24608L14.2461 6.43456C13.918 6.76267 13.918 7.29493 14.2461 7.62304L16.623 10L14.2466 12.3764C13.9185 12.7045 13.9185 13.2368 14.2466 13.5649L15.4351 14.7534C15.7632 15.0815 16.2955 15.0815 16.6236 14.7534L19 12.377L21.377 14.7539C21.7051 15.082 22.2373 15.082 22.5654 14.7539L23.7539 13.5654C24.082 13.2373 24.082 12.7051 23.7539 12.377L21.377 10Z" fill="#231EDC"/>
</svg>
