<svg xmlns="http://www.w3.org/2000/svg" width="60px" height="60px" fill="none"><g filter="url(#a)"><path fill="#fff" fill-opacity=".4" d="M54.064 26c0 13.255-11.061 24-24.706 24C15.712 50 4.65 39.255 4.65 26S15.712 2 29.358 2c13.645 0 24.706 10.745 24.706 24Z" shape-rendering="optimizeQuality"/></g><g filter="url(#b)"><path fill="#231EDC" fill-rule="evenodd" d="M56.064 26c0 14.414-12.012 26-26.706 26C14.663 52 2.65 40.414 2.65 26S14.663 0 29.358 0c14.694 0 26.706 11.586 26.706 26ZM29.358 50c13.645 0 24.706-10.745 24.706-24S43.003 2 29.358 2C15.712 2 4.65 12.745 4.65 26s11.061 24 24.707 24Z" clip-rule="evenodd"/></g><g filter="url(#c)"><path fill="#231EDC" d="M38.097 25.128a1 1 0 0 1 0 1.744l-12.398 6.953a1 1 0 0 1-1.489-.872V19.047a1 1 0 0 1 1.49-.872l12.397 6.953Z"/></g><defs><filter id="a" width="53.414" height="52" x="2.651" y="2" color-interpolation-filters="sRGB" filterUnits="userSpaceOnUse"><feFlood flood-opacity="0" result="BackgroundImageFix"/><feColorMatrix in="SourceAlpha" result="hardAlpha" values="0 0 0 0 0 0 0 0 0 0 0 0 0 0 0 0 0 0 127 0"/><feOffset dy="2"/><feGaussianBlur stdDeviation="1"/><feComposite in2="hardAlpha" operator="out"/><feColorMatrix values="0 0 0 0 0 0 0 0 0 0 0 0 0 0 0 0 0 0 0.1 0"/><feBlend in2="BackgroundImageFix" result="effect1_dropShadow_0_1"/><feBlend in="SourceGraphic" in2="effect1_dropShadow_0_1" result="shape"/></filter><filter id="b" width="57.414" height="56" x=".651" y="0" color-interpolation-filters="sRGB" filterUnits="userSpaceOnUse"><feFlood flood-opacity="0" result="BackgroundImageFix"/><feColorMatrix in="SourceAlpha" result="hardAlpha" values="0 0 0 0 0 0 0 0 0 0 0 0 0 0 0 0 0 0 127 0"/><feOffset dy="2"/><feGaussianBlur stdDeviation="1"/><feComposite in2="hardAlpha" operator="out"/><feColorMatrix values="0 0 0 0 0 0 0 0 0 0 0 0 0 0 0 0 0 0 0.1 0"/><feBlend in2="BackgroundImageFix" result="effect1_dropShadow_0_1"/><feBlend in="SourceGraphic" in2="effect1_dropShadow_0_1" result="shape"/></filter><filter id="c" width="18.397" height="19.909" x="22.21" y="16.046" color-interpolation-filters="sRGB" filterUnits="userSpaceOnUse"><feFlood flood-opacity="0" result="BackgroundImageFix"/><feColorMatrix in="SourceAlpha" result="hardAlpha" values="0 0 0 0 0 0 0 0 0 0 0 0 0 0 0 0 0 0 127 0"/><feOffset/><feGaussianBlur stdDeviation="1"/><feComposite in2="hardAlpha" operator="out"/><feColorMatrix values="0 0 0 0 0 0 0 0 0 0 0 0 0 0 0 0 0 0 0.1 0"/><feBlend in2="BackgroundImageFix" result="effect1_dropShadow_0_1"/><feBlend in="SourceGraphic" in2="effect1_dropShadow_0_1" result="shape"/></filter></defs></svg>