<svg width="60px" height="60px" viewBox="0 0 54 52" fill="none" xmlns="http://www.w3.org/2000/svg">
<path d="M48.3548 24C48.3548 36.7025 37.754 47 24.6774 47C11.6007 47 1 36.7025 1 24C1 11.2975 11.6007 1 24.6774 1C37.754 1 48.3548 11.2975 48.3548 24Z" fill="white" fill-opacity="0.4"/>
<path fill-rule="evenodd" clip-rule="evenodd" d="M24.7068 46C37.3026 46 47.4137 36.0959 47.4137 24C47.4137 11.9041 37.3026 2 24.7068 2C12.1111 2 2 11.9041 2 24C2 36.0959 12.1111 46 24.7068 46ZM24.7068 48C38.352 48 49.4137 37.2548 49.4137 24C49.4137 10.7452 38.352 0 24.7068 0C11.0616 0 0 10.7452 0 24C0 37.2548 11.0616 48 24.7068 48Z" fill="#231EDC"/>
<path d="M19.1445 30.2404V17.5929C19.1445 17.2654 19.41 17 19.7374 17H22.504C22.8315 17 23.0969 17.2654 23.0969 17.5929V30.2404C23.0969 30.5678 22.8315 30.8332 22.504 30.8332H19.7374C19.41 30.8332 19.1445 30.5678 19.1445 30.2404Z" fill="#231EDC"/>
<path fill-rule="evenodd" clip-rule="evenodd" d="M20.1445 18V29.8332H22.0969V18H20.1445ZM18.1445 17.5929C18.1445 16.7131 18.8577 16 19.7374 16H22.504C23.3837 16 24.0969 16.7131 24.0969 17.5929V30.2404C24.0969 31.1201 23.3837 31.8332 22.504 31.8332H19.7374C18.8577 31.8332 18.1445 31.1201 18.1445 30.2404V17.5929Z" fill="#231EDC"/>
<path d="M27.0493 30.2404V17.5929C27.0493 17.2654 27.3147 17 27.6422 17H30.4088C30.7363 17 31.0017 17.2654 31.0017 17.5929V30.2404C31.0017 30.5678 30.7363 30.8332 30.4088 30.8332H27.6422C27.3147 30.8332 27.0493 30.5678 27.0493 30.2404Z" fill="#231EDC"/>
<path fill-rule="evenodd" clip-rule="evenodd" d="M28.0493 18V29.8332H30.0017V18H28.0493ZM26.0493 17.5929C26.0493 16.7132 26.7624 16 27.6422 16H30.4088C31.2886 16 32.0017 16.7132 32.0017 17.5929V30.2404C32.0017 31.1201 31.2886 31.8332 30.4088 31.8332H27.6422C26.7624 31.8332 26.0493 31.1201 26.0493 30.2404V17.5929Z" fill="#231EDC"/>
</svg>
