<svg width="59" height="60" viewBox="0 0 56 60" fill="none" xmlns="http://www.w3.org/2000/svg">
    <g id="Group 116">
        <g id="Group 115">
            <g id="Ellipse 1" filter="url(#filter0_d_330_563)">
                <path
                    d="M54.0643 26C54.0643 39.2548 43.0027 50 29.3575 50C15.7123 50 4.65063 39.2548 4.65063 26C4.65063 12.7452 15.7123 2 29.3575 2C43.0027 2 54.0643 12.7452 54.0643 26Z"
                    fill="white" fill-opacity="0.4" shape-rendering="optimizeQuality" />
            </g>
            <g id="Ellipse 1 (Stroke)" filter="url(#filter1_d_330_563)">
                <path fill-rule="evenodd" clip-rule="evenodd"
                    d="M56.0643 26C56.0643 40.4137 44.0521 52 29.3575 52C14.6628 52 2.65063 40.4137 2.65063 26C2.65063 11.5863 14.6628 0 29.3575 0C44.0521 0 56.0643 11.5863 56.0643 26ZM29.3575 50C43.0027 50 54.0643 39.2548 54.0643 26C54.0643 12.7452 43.0027 2 29.3575 2C15.7123 2 4.65063 12.7452 4.65063 26C4.65063 39.2548 15.7123 50 29.3575 50Z"
                    fill="#231EDC" />
            </g>
            <g id="Polygon 1" filter="url(#filter2_d_330_563)">
                <path
                    d="M38.0968 25.1278C38.7779 25.5098 38.7779 26.4902 38.0968 26.8722L25.6993 33.8251C25.0327 34.1989 24.2102 33.7172 24.2102 32.9529L24.2102 19.0471C24.2102 18.2828 25.0327 17.8011 25.6993 18.1749L38.0968 25.1278Z"
                    fill="#231EDC" />
            </g>
        </g>
    </g>
    <defs>
        <filter id="filter0_d_330_563" x="2.65063" y="2" width="53.4136" height="52" filterUnits="userSpaceOnUse"
            color-interpolation-filters="sRGB">
            <feFlood flood-opacity="0" result="BackgroundImageFix" />
            <feColorMatrix in="SourceAlpha" type="matrix" values="0 0 0 0 0 0 0 0 0 0 0 0 0 0 0 0 0 0 127 0"
                result="hardAlpha" />
            <feOffset dy="2" />
            <feGaussianBlur stdDeviation="1" />
            <feComposite in2="hardAlpha" operator="out" />
            <feColorMatrix type="matrix" values="0 0 0 0 0 0 0 0 0 0 0 0 0 0 0 0 0 0 0.1 0" />
            <feBlend mode="normal" in2="BackgroundImageFix" result="effect1_dropShadow_330_563" />
            <feBlend mode="normal" in="SourceGraphic" in2="effect1_dropShadow_330_563" result="shape" />
        </filter>
        <filter id="filter1_d_330_563" x="0.650635" y="0" width="57.4136" height="56" filterUnits="userSpaceOnUse"
            color-interpolation-filters="sRGB">
            <feFlood flood-opacity="0" result="BackgroundImageFix" />
            <feColorMatrix in="SourceAlpha" type="matrix" values="0 0 0 0 0 0 0 0 0 0 0 0 0 0 0 0 0 0 127 0"
                result="hardAlpha" />
            <feOffset dy="2" />
            <feGaussianBlur stdDeviation="1" />
            <feComposite in2="hardAlpha" operator="out" />
            <feColorMatrix type="matrix" values="0 0 0 0 0 0 0 0 0 0 0 0 0 0 0 0 0 0 0.1 0" />
            <feBlend mode="normal" in2="BackgroundImageFix" result="effect1_dropShadow_330_563" />
            <feBlend mode="normal" in="SourceGraphic" in2="effect1_dropShadow_330_563" result="shape" />
        </filter>
        <filter id="filter2_d_330_563" x="22.2102" y="16.0457" width="18.3974" height="19.9087"
            filterUnits="userSpaceOnUse" color-interpolation-filters="sRGB">
            <feFlood flood-opacity="0" result="BackgroundImageFix" />
            <feColorMatrix in="SourceAlpha" type="matrix" values="0 0 0 0 0 0 0 0 0 0 0 0 0 0 0 0 0 0 127 0"
                result="hardAlpha" />
            <feOffset />
            <feGaussianBlur stdDeviation="1" />
            <feComposite in2="hardAlpha" operator="out" />
            <feColorMatrix type="matrix" values="0 0 0 0 0 0 0 0 0 0 0 0 0 0 0 0 0 0 0.1 0" />
            <feBlend mode="normal" in2="BackgroundImageFix" result="effect1_dropShadow_330_563" />
            <feBlend mode="normal" in="SourceGraphic" in2="effect1_dropShadow_330_563" result="shape" />
        </filter>
    </defs>
</svg>